<svg aria-hidden="true" data-prefix="fal" data-icon="envelope-dot" class="svg-inline--fa fa-envelope-dot" xmlns="http://www.w3.org/2000/svg" viewBox="0 0 576 512"><path fill="currentColor" d="M448 80a48 48 0 1 1 96 0 48 48 0 1 1-96 0zm128 0a80 80 0 1 0-160 0 80 80 0 1 0 160 0zm-64 304V190.9c-5.2.7-10.6 1.1-16 1.1-13.8 0-27-2.5-39.2-7.1L284.4 311.3c-16.9 12.4-39.9 12.4-56.8 0L32 167.9V128c0-17.7 14.3-32 32-32h321.1c-.7-5.2-1.1-10.6-1.1-16s.4-10.8 1.1-16H64C28.7 64 0 92.7 0 128v256c0 35.3 28.7 64 64 64h384c35.3 0 64-28.7 64-64zM32 207.6l176.7 129.5c28.2 20.6 66.5 20.6 94.6 0L480 207.6V384c0 17.7-14.3 32-32 32H64c-17.7 0-32-14.3-32-32V207.6z"/></svg>