<svg aria-hidden="true" data-prefix="fal" data-icon="camera" class="svg-inline--fa fa-camera" xmlns="http://www.w3.org/2000/svg" viewBox="0 0 512 512"><path fill="currentColor" d="M191.1 32c-20.7 0-39 13.2-45.5 32.8L135.1 96H64c-35.3 0-64 28.7-64 64v256c0 35.3 28.7 64 64 64h384c35.3 0 64-28.7 64-64V160c0-35.3-28.7-64-64-64h-71.1l-10.4-31.2C359.9 45.2 341.6 32 320.9 32H191.1zm-15.2 42.9c2.2-6.5 8.3-10.9 15.2-10.9h129.8c6.9 0 13 4.4 15.2 10.9l14 42.1c2.2 6.5 8.3 10.9 15.2 10.9H448c17.7 0 32 14.3 32 32V416c0 17.7-14.3 32-32 32H64c-17.7 0-32-14.3-32-32V160c0-17.7 14.3-32 32-32h82.7c6.9 0 13-4.4 15.2-10.9l14-42.1zM256 400a112 112 0 1 0 0-224 112 112 0 1 0 0 224zm-80-112a80 80 0 1 1 160 0 80 80 0 1 1-160 0z"/></svg>